HIERARCHY
ROOT Hips
{
	OFFSET 0.00000 0.00000 0.00000
	CHANNELS 6 Xposition Yposition Zposition Zrotation Yrotation Xrotation 
	JOINT LHipJoint
	{
		OFFSET 0 0 0
		CHANNELS 3 Zrotation Yrotation Xrotation
		JOINT LeftUpLeg
		{
			OFFSET 1.33213 -1.58186 0.78596
			CHANNELS 3 Zrotation Yrotation Xrotation
			JOINT LeftLeg
			{
				OFFSET 2.29717 -6.31144 0.00000
				CHANNELS 3 Zrotation Yrotation Xrotation
				JOINT LeftFoot
				{
					OFFSET 2.38430 -6.55082 0.00000
					CHANNELS 3 Zrotation Yrotation Xrotation
					JOINT LeftToeBase
					{
						OFFSET 0.11863 -0.32594 1.77568
						CHANNELS 3 Zrotation Yrotation Xrotation
						End Site
						{
							OFFSET 0.00000 -0.00000 0.91633
						}
					}
				}
			}
		}
	}
	JOINT RHipJoint
	{
		OFFSET 0 0 0
		CHANNELS 3 Zrotation Yrotation Xrotation
		JOINT RightUpLeg
		{
			OFFSET -1.41575 -1.58186 0.78596
			CHANNELS 3 Zrotation Yrotation Xrotation
			JOINT RightLeg
			{
				OFFSET -2.42012 -6.64922 0.00000
				CHANNELS 3 Zrotation Yrotation Xrotation
				JOINT RightFoot
				{
					OFFSET -2.47254 -6.79327 0.00000
					CHANNELS 3 Zrotation Yrotation Xrotation
					JOINT RightToeBase
					{
						OFFSET -0.15219 -0.41813 1.93430
						CHANNELS 3 Zrotation Yrotation Xrotation
						End Site
						{
							OFFSET -0.00000 -0.00000 0.99984
						}
					}
				}
			}
		}
	}
	JOINT LowerBack
	{
		OFFSET 0 0 0
		CHANNELS 3 Zrotation Yrotation Xrotation
		JOINT Spine
		{
			OFFSET -0.04717 2.09389 -0.14516
			CHANNELS 3 Zrotation Yrotation Xrotation
			JOINT Spine1
			{
				OFFSET 0.02825 2.09433 -0.11325
				CHANNELS 3 Zrotation Yrotation Xrotation
				JOINT Neck
				{
					OFFSET 0 0 0
					CHANNELS 3 Zrotation Yrotation Xrotation
					JOINT Neck1
					{
						OFFSET -0.01210 1.39029 0.12448
						CHANNELS 3 Zrotation Yrotation Xrotation
						JOINT Head
						{
							OFFSET 0.09492 1.38365 0.14559
							CHANNELS 3 Zrotation Yrotation Xrotation
							End Site
							{
								OFFSET 0.03402 1.40343 0.03708
							}
						}
					}
				}
				JOINT LeftShoulder
				{
					OFFSET 0 0 0
					CHANNELS 3 Zrotation Yrotation Xrotation
					JOINT LeftArm
					{
						OFFSET 2.83352 1.10671 -0.20481
						CHANNELS 3 Zrotation Yrotation Xrotation
						JOINT LeftForeArm
						{
							OFFSET 4.77195 -0.00000 -0.00000
							CHANNELS 3 Zrotation Yrotation Xrotation
							JOINT LeftHand
							{
								OFFSET 2.98444 -0.00000 0.00000
								CHANNELS 3 Zrotation Yrotation Xrotation
								JOINT LeftFingerBase
								{
									OFFSET 0 0 0
									CHANNELS 3 Zrotation Yrotation Xrotation
									JOINT LeftHandIndex1
									{
										OFFSET 0.99228 -0.00000 0.00000
										CHANNELS 3 Zrotation Yrotation Xrotation
										End Site
										{
											OFFSET 0.80001 -0.00000 0.00000
										}
									}
								}
								JOINT LThumb
								{
									OFFSET 0 0 0
									CHANNELS 3 Zrotation Yrotation Xrotation
									End Site
									{
										OFFSET 0.81222 -0.00000 0.81222
									}
								}
							}
						}
					}
				}
				JOINT RightShoulder
				{
					OFFSET 0 0 0
					CHANNELS 3 Zrotation Yrotation Xrotation
					JOINT RightArm
					{
						OFFSET -3.23760 1.11106 0.06723
						CHANNELS 3 Zrotation Yrotation Xrotation
						JOINT RightForeArm
						{
							OFFSET -4.62052 -0.00000 0.00000
							CHANNELS 3 Zrotation Yrotation Xrotation
							JOINT RightHand
							{
								OFFSET -2.95332 -0.00000 0.00000
								CHANNELS 3 Zrotation Yrotation Xrotation
								JOINT RightFingerBase
								{
									OFFSET 0 0 0
									CHANNELS 3 Zrotation Yrotation Xrotation
									JOINT RightHandIndex1
									{
										OFFSET -0.99096 -0.00000 0.00000
										CHANNELS 3 Zrotation Yrotation Xrotation
										End Site
										{
											OFFSET -0.79893 -0.00000 0.00000
										}
									}
								}
								JOINT RThumb
								{
									OFFSET 0 0 0
									CHANNELS 3 Zrotation Yrotation Xrotation
									End Site
									{
										OFFSET -0.81113 -0.00000 0.81113
									}
								}
							}
						}
					}
				}
			}
		}
	}
}
MOTION
Frames: 15
Frame Time: .0083333
11.1871 16.0764 32.3929 0 0 0 0 0 0 -21 0 0 0 0 0 0 0 0 0 0 0 0 0 0 21 0 0 0 0 0 0 0 0 0 0 0 0 0 0 0 0 0 0 0 0 0 0 -16 0 0 21 0 0 11 0 0 0 -8 0 0 0 0 0 0 0 0 0 0 0 0 0 0 0 0 0 0 0 0 8 0 0 0 0 0 0 0 0 0 0 0 0 0 0 0 0 0
11.1871 16.0764 32.3929 -179.7200 -30.6219 -169.9460 0.0000 0.0000 0.0000 -15.7961 -15.0633 -5.5021 0.7878 5.6659 15.8181 -0.2977 -14.1908 -5.9579 0.0220 -0.9575 -2.6318 0.0000 0.0000 0.0000 15.2503 -0.7625 -32.1779 -2.4723 -9.7874 28.2909 -1.1859 0.3464 -20.4835 -0.8907 -6.0156 16.8296 0.2190 3.9098 -8.5232 0.5985 5.1503 1.5326 1.2149 2.5248 6.3417 -1.7070 9.3062 -1.5999 4.0155 12.4292 -1.6170 1.4716 6.1902 -0.6138 -0.0000 0.0000 0.0000 -91.6352 -7.6661 17.0053 11.6309 -19.2487 -1.9789 -0.0000 -0.0000 8.1711 -15.4627 15.5855 -4.2505 -7.1250 0.0000 -0.0000 -37.6218 42.2239 3.0686 -0.0000 0.0000 0.0000 91.8215 -3.8190 -2.1445 -20.7801 31.5708 -5.9344 0.0000 0.0000 24.1385 0.5195 -4.4462 -0.0403 7.1250 -0.0000 -0.0000 21.9537 -33.7277 6.4801
11.1458 16.0691 32.4852 -179.5800 -30.1973 -170.1930 0.0000 0.0000 0.0000 -15.9571 -14.4638 -6.0738 0.8523 5.8878 16.4592 -0.3577 -14.8247 -5.7274 0.0052 -0.4641 -1.2753 0.0000 0.0000 0.0000 14.8867 0.1237 -31.7756 -2.4178 -9.6868 27.9683 -1.2776 0.6030 -21.1874 -1.9785 -8.8212 25.2377 0.1470 3.9465 -8.4394 0.8006 5.1932 1.6721 1.4707 2.5378 6.4156 -1.4079 9.1733 -0.9790 3.5994 12.2558 -2.0969 1.2543 6.0925 -0.8124 0.0000 -0.0000 0.0000 -91.5649 -4.8489 26.3929 9.7112 -16.2865 -1.3929 -0.0000 -0.0000 30.5030 5.4301 8.8321 0.8362 -7.1250 0.0000 -0.0000 -18.3216 38.2202 3.1873 0.0000 -0.0000 0.0000 91.7403 -3.9588 -2.9541 -19.9443 30.5752 -5.5030 0.0000 0.0000 24.5476 -2.4590 -5.1919 0.2227 7.1250 -0.0000 -0.0000 19.8124 -34.5852 5.3356
11.1024 16.0639 32.5853 -179.7930 -29.7240 -170.1310 0.0000 0.0000 0.0000 -16.4690 -14.0815 -6.4907 0.8704 5.9483 16.6345 -0.3890 -15.0429 -5.4899 0.0005 -0.1438 -0.3950 0.0000 0.0000 0.0000 14.2013 0.8812 -31.7496 -2.4016 -9.6567 27.8720 -1.3778 0.9882 -21.8989 -3.1389 -10.9166 31.9990 0.0456 4.0229 -8.4414 0.6811 5.3162 1.7856 1.4255 2.5960 6.5369 -1.8557 9.2386 -1.3893 4.0355 12.3451 -1.7570 1.4869 6.1454 -0.7007 0.0000 0.0000 0.0000 -91.2969 -4.8173 26.0403 9.7571 -16.3587 -1.4058 -0.0000 -0.0000 31.6964 4.3015 9.1317 0.6839 -7.1250 0.0000 -0.0000 -19.3312 38.4209 3.2791 0.0000 0.0000 0.0000 92.0723 -4.0381 -3.9884 -19.3364 29.8345 -5.1971 0.0000 0.0000 25.7352 -4.5960 -6.4519 0.5175 7.1250 -0.0000 -0.0000 18.4094 -35.8991 4.3014
11.0520 16.0595 32.6866 -180.2090 -29.2002 -170.0890 0.0000 0.0000 0.0000 -17.2556 -13.6629 -6.7292 0.8866 6.0022 16.7907 -0.3957 -15.1721 -5.5388 0.0024 -0.3167 -0.8701 0.0000 0.0000 0.0000 13.4210 1.1728 -31.7773 -2.3798 -9.6160 27.7418 -1.3943 1.1228 -21.9935 -3.7245 -11.7845 34.9740 -0.4945 4.0604 -8.4679 0.7897 5.4194 1.9611 1.8616 2.6211 6.6751 -2.3770 9.3227 -1.5851 4.0939 12.4641 -1.4400 1.6050 6.2162 -0.6114 -0.0000 -0.0000 0.0000 -91.4713 -4.7021 26.4631 9.8368 -16.4838 -1.4283 -0.0000 -0.0000 31.3271 4.1687 9.6881 0.7027 -7.1250 0.0000 -0.0000 -19.5951 38.9362 3.0669 -0.0000 -0.0000 0.0000 91.9251 -4.2517 -4.8180 -18.8061 29.1770 -4.9360 0.0000 0.0000 26.5002 -9.0439 -9.0745 1.4380 7.1250 -0.0000 -0.0000 15.3782 -38.7199 2.4476
10.9975 16.0561 32.7770 -180.5470 -28.5951 -170.2940 0.0000 0.0000 0.0000 -18.0380 -12.9992 -6.6883 0.8932 6.0237 16.8532 -0.4094 -15.2678 -5.4393 0.0004 -0.1325 -0.3639 0.0000 0.0000 0.0000 12.7217 1.4653 -31.5521 -2.3630 -9.5844 27.6411 -1.4048 1.2150 -22.0522 -4.1424 -12.3475 36.9726 0.4435 4.4305 -7.5181 -0.2947 5.8890 1.6495 0.1892 2.9222 6.0039 -1.5415 9.1973 -1.5650 4.7126 12.2624 -0.9874 1.6782 6.1081 -0.4557 -0.0000 -0.0000 0.0000 -89.4282 -3.8989 28.5849 9.9835 -16.7138 -1.4702 -0.0000 -0.0000 29.0792 4.7080 9.9504 0.8153 -7.1250 0.0000 -0.0000 -19.2223 39.2267 2.8589 -0.0000 -0.0000 0.0000 93.9914 -5.1156 -6.3546 -18.3978 28.6635 -4.7385 0.0000 0.0000 27.3485 -8.8283 -9.5282 1.4727 7.1250 -0.0000 -0.0000 15.6682 -39.1453 2.3274
10.9475 16.0591 32.8600 -180.7450 -28.2037 -170.4370 0.0000 0.0000 0.0000 -18.5987 -12.5032 -6.8338 0.9066 6.0676 16.9808 -0.4449 -15.4093 -5.0472 0.0051 0.4628 1.2716 0.0000 0.0000 0.0000 12.1650 1.8138 -31.3309 -2.3373 -9.5358 27.4862 -1.4136 0.9481 -22.1985 -4.3075 -12.5587 37.7383 -0.2426 4.2399 -7.9080 0.1428 5.6784 2.0320 1.0438 2.7774 6.5151 -1.6073 9.2934 -1.0625 4.0144 12.4096 -1.5194 1.4303 6.1760 -0.6649 0.0000 -0.0000 0.0000 -89.9944 -4.0630 26.7489 9.7159 -16.2939 -1.3942 -0.0000 -0.0000 30.1595 5.1278 8.0330 0.7185 -7.1250 0.0000 -0.0000 -18.3647 37.4379 3.5646 0.0000 -0.0000 0.0000 93.2451 -5.0092 -6.4167 -17.7248 27.8033 -4.4201 0.0000 0.0000 27.6338 -8.4680 -10.1325 1.5003 7.1250 -0.0000 -0.0000 16.1228 -39.7033 2.1703
10.9038 16.0610 32.9444 -180.8040 -28.0099 -170.4420 0.0000 0.0000 0.0000 -18.9217 -12.1381 -7.3011 0.9288 6.1393 17.1892 -0.4799 -15.5944 -4.7135 0.0081 0.5794 1.5921 0.0000 0.0000 0.0000 11.8411 1.8976 -31.3750 -2.3000 -9.4648 27.2602 -1.3861 0.5578 -22.0949 -4.2623 -12.5015 37.5298 -0.0711 4.1134 -7.9320 0.0126 5.5004 2.0410 0.7933 2.6988 6.5700 -2.3867 9.5478 -1.8395 4.6739 12.7475 -0.6680 1.8194 6.3657 -0.3801 0.0000 -0.0000 0.0000 -89.4910 -3.9124 25.4337 9.5236 -15.9909 -1.3407 -0.0000 -0.0000 31.2637 5.2174 6.5176 0.5938 -7.1250 0.0000 -0.0000 -17.9242 35.9989 4.1325 0.0000 -0.0000 0.0000 93.5838 -5.2167 -6.9791 -17.1470 27.0511 -4.1540 0.0000 0.0000 28.0357 -8.2127 -10.4576 1.5006 7.1250 -0.0000 -0.0000 16.4226 -39.9970 2.0904
10.8611 16.0556 33.0254 -180.8300 -27.7646 -170.5350 0.0000 0.0000 0.0000 -19.2167 -11.6893 -7.7061 0.9545 6.2215 17.4285 -0.5075 -15.7755 -4.4989 0.0124 0.7182 1.9737 0.0000 0.0000 0.0000 11.5810 1.9177 -31.3902 -2.2611 -9.3900 27.0232 -1.3620 0.3977 -21.9499 -4.3117 -12.5640 37.7575 0.1685 4.0133 -7.8717 -0.0866 5.3485 2.0718 0.5350 2.6357 6.6012 -1.8516 9.5180 -1.1428 4.2540 12.7067 -1.1951 1.5516 6.3297 -0.5931 -0.0000 -0.0000 0.0000 -89.0818 -3.7735 24.9959 9.4400 -15.8589 -1.3178 -0.0000 -0.0000 31.5848 5.5451 6.6873 0.6477 -7.1250 0.0000 -0.0000 -17.6990 36.1807 3.9939 -0.0000 -0.0000 0.0000 93.9199 -5.4749 -7.8480 -16.6135 26.3454 -3.9142 0.0000 0.0000 28.8964 -7.9377 -10.5918 1.4681 7.1250 -0.0000 -0.0000 16.6907 -40.1037 2.0814
10.8216 16.0517 33.0944 -181.0110 -27.5374 -170.5820 0.0000 0.0000 0.0000 -19.6390 -11.2821 -8.0073 0.9828 6.3104 17.6877 -0.5410 -16.0036 -4.2539 0.0280 1.0804 2.9701 0.0000 0.0000 0.0000 11.0833 2.2660 -31.2077 -2.2279 -9.3254 26.8186 -1.3735 0.1433 -22.1261 -4.4312 -12.7132 38.3040 0.1342 3.9120 -7.9172 -0.1733 5.2230 2.1434 0.4538 2.5734 6.7084 -2.8675 9.7359 -2.1048 5.1503 12.9974 -0.1245 2.0736 6.5007 -0.2422 -0.0000 0.0000 0.0000 -88.7978 -3.6969 24.1384 9.2970 -15.6325 -1.2790 -0.0000 -0.0000 32.3578 5.9997 6.9038 0.7238 -7.1250 0.0000 -0.0000 -17.3808 36.4157 3.8122 -0.0000 0.0000 0.0000 94.1382 -5.5495 -9.0243 -15.9276 25.4223 -3.6148 0.0000 0.0000 29.9954 -7.6215 -10.7718 1.4326 7.1250 -0.0000 -0.0000 17.0067 -40.2505 2.0598
10.7854 16.0485 33.1527 -181.3480 -27.2876 -170.5820 0.0000 0.0000 0.0000 -20.2024 -10.9351 -8.1844 1.0099 6.3943 17.9328 -0.5653 -16.2076 -4.1360 0.0251 1.0219 2.8091 0.0000 0.0000 0.0000 10.3811 2.8615 -30.8914 -2.2036 -9.2778 26.6683 -1.4176 -0.1441 -22.5775 -4.5891 -12.9055 39.0159 -0.2818 3.7906 -8.0584 -0.1723 5.1057 2.2379 0.6833 2.4966 6.8524 -2.5239 9.6936 -1.1946 4.7591 12.9498 -1.0016 1.8177 6.4553 -0.6149 0.0000 0.0000 0.0000 -88.7408 -3.6678 22.6755 9.0336 -15.2140 -1.2089 -0.0000 -0.0000 33.5505 6.4351 6.7690 0.7617 -7.1250 0.0000 -0.0000 -16.9962 36.3129 3.7659 0.0000 0.0000 0.0000 94.1638 -5.4892 -10.5520 -15.1348 24.3335 -3.2813 0.0000 0.0000 31.2155 -7.3408 -10.9618 1.4033 7.1250 -0.0000 -0.0000 17.2965 -40.4092 2.0272
10.7446 16.0390 33.2095 -181.5970 -26.9827 -170.6930 0.0000 0.0000 0.0000 -20.7320 -10.7003 -8.1796 1.0303 6.4564 18.1145 -0.5698 -16.2580 -4.1333 0.0188 0.8842 2.4302 0.0000 0.0000 0.0000 9.8157 3.1972 -30.6550 -2.1887 -9.2486 26.5760 -1.4377 -0.1566 -22.7412 -4.7451 -13.0909 39.7096 -0.4943 3.6971 -8.0547 -0.1923 5.0049 2.2655 0.7670 2.4384 6.8637 -3.4588 9.9370 -1.7143 5.2902 13.2880 -0.4365 2.1738 6.6408 -0.4694 -0.0000 -0.0000 0.0000 -88.6418 -3.4530 21.3617 8.7711 -14.7949 -1.1410 -0.0000 -0.0000 34.3080 6.8419 6.8830 0.8238 -7.1250 0.0000 -0.0000 -16.6911 36.4473 3.6363 -0.0000 -0.0000 0.0000 94.2455 -5.5619 -12.3201 -14.3975 23.3001 -2.9835 0.0000 0.0000 32.4600 -7.0128 -11.1788 1.3662 7.1250 -0.0000 -0.0000 17.6350 -40.5889 1.9887
10.7014 16.0257 33.2682 -181.7000 -26.6333 -170.8790 0.0000 0.0000 0.0000 -21.1461 -10.5637 -8.1405 1.0463 6.5048 18.2564 -0.5573 -16.1421 -4.1762 0.0258 1.0378 2.8527 0.0000 0.0000 0.0000 9.4670 3.2587 -30.5683 -2.1777 -9.2268 26.5072 -1.4036 -0.0764 -22.4424 -4.8003 -13.1553 39.9526 -0.3823 3.6010 -7.9444 -0.2543 4.8676 2.2404 0.6129 2.3782 6.7901 -3.1370 10.0142 -0.8974 4.9410 13.3883 -1.0002 1.9459 6.6750 -0.7387 0.0000 -0.0000 0.0000 -88.3989 -3.1018 20.2259 8.5570 -14.4516 -1.0869 -0.0000 -0.0000 34.8193 6.9810 7.1669 0.8752 -7.1250 0.0000 -0.0000 -16.6420 36.7297 3.5053 0.0000 -0.0000 0.0000 94.3946 -5.8080 -13.9885 -13.7483 22.3737 -2.7315 0.0000 0.0000 33.7896 -6.7575 -11.1304 1.3103 7.1250 -0.0000 -0.0000 17.8375 -40.5203 2.0446
10.6642 16.0157 33.3208 -181.8170 -26.2560 -171.0200 0.0000 0.0000 0.0000 -21.5369 -10.4165 -8.1764 1.0665 6.5654 18.4342 -0.5372 -15.9812 -4.2854 0.0290 1.0990 3.0212 0.0000 0.0000 0.0000 9.1451 3.4269 -30.4812 -2.1602 -9.1921 26.3982 -1.3606 -0.1821 -22.1310 -4.7483 -13.0947 39.7239 -0.3464 3.4841 -7.9228 -0.3106 4.7111 2.2592 0.5125 2.3039 6.8064 -2.7241 10.0583 -0.0859 4.5540 13.4508 -1.7498 1.6909 6.6877 -1.0540 0.0000 -0.0000 0.0000 -88.1247 -2.9561 18.8798 8.2535 -13.9629 -1.0124 -0.0000 -0.0000 35.6864 6.8896 7.2322 0.8715 -7.1250 0.0000 -0.0000 -16.7316 36.7869 3.5012 0.0000 -0.0000 0.0000 94.5477 -6.0377 -15.5037 -13.1453 21.4998 -2.5063 0.0000 0.0000 35.1699 -6.6045 -10.9222 1.2568 7.1250 -0.0000 -0.0000 17.9081 -40.3080 2.1508
10.6323 16.0094 33.3629 -181.9400 -25.8203 -171.1750 0.0000 0.0000 0.0000 -21.9003 -10.0997 -8.2356 1.0922 6.6415 18.6576 -0.5240 -15.9263 -4.4322 0.0202 0.9173 2.5212 0.0000 0.0000 0.0000 8.8149 3.8375 -30.2166 -2.1309 -9.1336 26.2142 -1.3553 -0.2469 -22.1104 -4.8190 -13.1770 40.0346 -0.5052 3.3682 -7.9964 -0.2930 4.5729 2.3276 0.6075 2.2274 6.9079 -2.9843 10.2412 -0.2266 4.6762 13.6952 -1.5875 1.7761 6.8146 -1.0176 0.0000 0.0000 0.0000 -87.9581 -2.9264 17.3453 7.8823 -13.3619 -0.9247 -0.0000 -0.0000 36.8354 6.7784 7.2980 0.8650 -7.1250 0.0000 -0.0000 -16.8376 36.8432 3.5008 0.0000 0.0000 0.0000 94.5528 -6.1635 -16.9558 -12.5862 20.6779 -2.3051 0.0000 0.0000 36.1854 -6.1576 -10.9909 1.1783 7.1250 -0.0000 -0.0000 18.3046 -40.3352 2.1894
